<svg width="70" height="70" viewBox="0 0 70 70" fill="none" xmlns="http://www.w3.org/2000/svg">
<path d="M18.8933 48.6319V33.6852C18.8967 31.4755 19.5528 29.3158 20.7797 27.4762L33.5341 8.37143C34.2211 7.33657 35.1538 6.48724 36.2492 5.89903C37.3446 5.31082 38.5688 5.00198 39.8128 5C40.6217 4.99934 41.4187 5.19405 42.1357 5.5675C42.8528 5.94095 43.4687 6.48205 43.9307 7.14458C44.3927 7.80712 44.6871 8.57139 44.7888 9.37212C44.8905 10.1729 44.7965 10.9863 44.5147 11.7429L40.038 23.6833C39.8794 24.1068 39.8256 24.5622 39.8811 25.0109C39.9366 25.4596 40.0998 25.8883 40.3568 26.2606C40.6139 26.6329 40.9571 26.9378 41.3575 27.1494C41.7578 27.361 42.2034 27.4731 42.6565 27.4762H62.3653C63.2128 27.4757 64.0494 27.666 64.8129 28.033C65.5764 28.4001 66.247 28.9343 66.7748 29.596C67.3026 30.2577 67.6739 31.0297 67.861 31.8545C68.0481 32.6792 68.0463 33.5355 67.8556 34.3595L61.9993 59.6452C61.7184 60.8606 61.0403 61.9482 60.0718 62.7366C59.1032 63.5251 57.8993 63.9695 56.6497 64H43.7545C38.5054 63.9988 33.3287 62.7771 28.6351 60.4319L25.0875 58.6619C23.2259 57.7259 21.6612 56.2926 20.5676 54.5218C19.474 52.751 18.8944 50.712 18.8933 48.6319ZM2 31.7748V54.251C2.02223 56.0991 2.77362 57.8641 4.09126 59.1631C5.4089 60.4622 7.18658 61.1906 9.03886 61.1905C10.9057 61.1905 12.696 60.4505 14.0161 59.1333C15.3361 57.816 16.0777 56.0295 16.0777 54.1667V31.6905C16.0777 29.8276 15.3361 28.0411 14.0161 26.7239C12.696 25.4067 10.9057 24.6667 9.03886 24.6667C7.17204 24.6667 5.38168 25.4067 4.06164 26.7239C2.74159 28.0411 2 29.8276 2 31.6905L2 31.7748Z" fill="#4643B6"/>
</svg>
