<svg width="70" height="70" viewBox="0 0 70 70" fill="none" xmlns="http://www.w3.org/2000/svg">
<g clip-path="url(#clip0)">
<path d="M20.9095 46.0698L7.3008 9.3536L2.59909 8.85585C1.82458 8.77431 1.11409 8.38764 0.623927 7.78089C0.133767 7.17414 -0.0959154 6.39702 -0.0145912 5.62049C0.066733 4.84395 0.452402 4.13161 1.05757 3.64017C1.66274 3.14874 2.43784 2.91846 3.21236 2.99999L7.94327 3.52702C9.02136 3.64337 10.0459 4.05832 10.902 4.72541C11.7582 5.39249 12.4123 6.28536 12.791 7.30405L26.2829 43.991C26.5039 44.7049 26.4441 45.4766 26.1159 46.1478C25.7877 46.819 25.2158 47.3389 24.5176 47.6009C23.8193 47.863 23.0475 47.8474 22.3604 47.5572C21.6732 47.2671 21.1228 46.7245 20.8219 46.0405L20.9095 46.0698ZM69.7956 43.464C69.6623 43.1018 69.459 42.7696 69.1972 42.4866C68.9355 42.2035 68.6205 41.9751 68.2704 41.8146C67.9202 41.654 67.5419 41.5645 67.1572 41.5511C66.7724 41.5377 66.3888 41.6007 66.0284 41.7365L35.5111 53.1261C34.0995 51.6578 32.2223 50.7277 30.2015 50.4953C28.1807 50.2629 26.1422 50.7427 24.4357 51.8525C22.7292 52.9623 21.461 54.6328 20.8486 56.5775C20.2363 58.5223 20.318 60.6201 21.0797 62.511C21.8413 64.402 23.2356 65.9683 25.0232 66.9414C26.8108 67.9144 28.8804 68.2334 30.8769 67.8438C32.8735 67.4542 34.6727 66.3802 35.9658 64.806C37.2589 63.2318 37.9654 61.2556 37.9641 59.2162C37.9641 58.982 37.9641 58.7477 37.9641 58.4842L68.1602 47.241C68.8738 46.954 69.4458 46.3965 69.752 45.6894C70.0581 44.9823 70.0738 44.1826 69.7956 43.464ZM29.8457 40.536C30.2455 41.619 30.8545 42.6124 31.6377 43.4591C32.4209 44.3059 33.363 44.9896 34.41 45.4709C35.457 45.9523 36.5884 46.2219 37.7394 46.2644C38.8905 46.3069 40.0386 46.1213 41.1181 45.7185L60.2169 38.6036C61.2971 38.2027 62.2879 37.5921 63.1325 36.8069C63.977 36.0216 64.6589 35.0771 65.139 34.0274C65.6191 32.9776 65.888 31.8433 65.9304 30.6892C65.9728 29.5352 65.7877 28.3841 65.3859 27.3018L59.6037 11.7838C59.2038 10.7008 58.5948 9.70745 57.8116 8.86066C57.0284 8.01388 56.0864 7.33025 55.0394 6.84889C53.9924 6.36754 52.861 6.0979 51.7099 6.05543C50.5588 6.01295 49.4107 6.19846 48.3313 6.60134L29.2032 13.804C27.0339 14.6198 25.2753 16.2638 24.3121 18.3764C23.3488 20.489 23.2594 22.8981 24.0634 25.0766L29.8457 40.536Z" fill="#4643B6"/>
</g>
<defs>
<clipPath id="clip0">
<rect width="70" height="65" fill="white" transform="translate(0 3)"/>
</clipPath>
</defs>
</svg>
