<svg width="70" height="70" viewBox="0 0 70 70" fill="none" xmlns="http://www.w3.org/2000/svg">
<g clip-path="url(#clip0)">
<path d="M66.5621 42.1466C67.1049 39.7441 70 37.5545 70 35C70 32.4454 66.9843 30.2558 66.5621 27.8533C66.1399 25.4508 67.6779 22.1359 66.5621 19.9159C65.4462 17.6958 61.9178 16.8747 60.3798 14.9892C58.8418 13.1037 58.9323 9.3631 57.0022 7.81211C55.0721 6.26113 51.5739 7.08224 49.2518 6.07866C46.9296 5.07508 45.6329 1.63859 43.2203 0.999951C40.8077 0.361311 38.0935 2.82464 35.5302 2.82464C32.9668 2.82464 30.1923 0.543779 27.8099 0.999951C25.4275 1.45612 23.8894 4.89262 21.7784 5.98743C19.6674 7.08224 16.0184 6.1699 14.0883 7.72088C12.1582 9.27186 12.1582 13.1645 10.59 14.9892C9.02185 16.8139 5.49344 17.635 4.40778 19.9159C3.32212 22.1967 5.01093 25.3899 4.40778 27.8533C3.80463 30.3166 1 32.4454 1 35C1 37.5545 4.01573 39.7441 4.43794 42.1466C4.86014 44.5491 3.32212 47.864 4.43794 50.084C5.55376 52.3041 9.08217 53.1252 10.6202 55.0107C12.1582 56.8962 12.0677 60.6368 13.9978 62.1878C15.9279 63.7388 19.4261 62.8264 21.6879 63.9212C23.9497 65.016 25.3671 68.3309 27.7194 68.9087C30.0717 69.4865 32.8462 67.084 35.4095 67.084C37.9729 67.084 40.7172 69.4257 43.0997 68.9087C45.4821 68.3917 47.0201 65.016 49.1311 63.9212C51.2421 62.8264 54.8912 63.7388 56.8212 62.1878C58.7513 60.6368 58.6608 56.957 60.1989 55.0107C61.7369 53.0644 65.2955 52.3649 66.3811 50.084C67.4668 47.8032 65.9891 44.6404 66.5621 42.1466ZM29.4685 25.3291C30.065 25.3291 30.6481 25.5075 31.144 25.8416C31.6399 26.1758 32.0265 26.6508 32.2547 27.2065C32.483 27.7622 32.5427 28.3736 32.4263 28.9636C32.31 29.5535 32.0227 30.0954 31.601 30.5207C31.1792 30.946 30.6419 31.2356 30.0569 31.353C29.4719 31.4703 28.8655 31.4101 28.3145 31.1799C27.7634 30.9497 27.2924 30.5599 26.961 30.0598C26.6297 29.5597 26.4528 28.9717 26.4528 28.3703C26.4528 27.5637 26.7705 26.7902 27.3361 26.2198C27.9016 25.6495 28.6687 25.3291 29.4685 25.3291ZM41.5315 43.576C40.935 43.576 40.352 43.3976 39.856 43.0634C39.3601 42.7293 38.9735 42.2543 38.7453 41.6986C38.517 41.1429 38.4573 40.5315 38.5737 39.9415C38.69 39.3516 38.9773 38.8097 39.399 38.3844C39.8208 37.9591 40.3581 37.6695 40.9431 37.5521C41.5281 37.4348 42.1345 37.495 42.6855 37.7252C43.2366 37.9554 43.7076 38.3451 44.039 38.8453C44.3703 39.3454 44.5472 39.9333 44.5472 40.5348C44.5472 41.3414 44.2295 42.1149 43.6639 42.6852C43.0984 43.2556 42.3313 43.576 41.5315 43.576ZM44.0345 30.1645L31.1573 42.9982C30.5735 43.4334 29.8536 43.6415 29.1298 43.5845C28.4059 43.5274 27.7268 43.209 27.2171 42.6876C26.7074 42.1662 26.4014 41.4769 26.3551 40.7462C26.3089 40.0156 26.5256 39.2926 26.9655 38.7101L39.7522 25.8157C40.3291 25.3175 41.0712 25.0571 41.8302 25.0867C42.5892 25.1163 43.3092 25.4335 43.8462 25.9752C44.3833 26.5168 44.698 27.2428 44.7273 28.0082C44.7566 28.7736 44.4984 29.5219 44.0044 30.1037L44.0345 30.1645Z" fill="#4643B6"/>
</g>
<defs>
<clipPath id="clip0">
<rect width="69" height="68" fill="white" transform="translate(1 1)"/>
</clipPath>
</defs>
</svg>
