<svg width="44" height="44" viewBox="0 0 44 44" fill="none" xmlns="http://www.w3.org/2000/svg">
<path d="M40.3265 1.35352H3.62851C2.37193 1.35427 1.35326 2.37344 1.35352 3.63052V40.3285C1.35427 41.5851 2.37344 42.6038 3.63052 42.6035H23.3884V26.6514H18.0308V20.4075H23.3884V15.8124C23.3884 10.4837 26.6415 7.58331 31.395 7.58331C33.6717 7.58331 35.6282 7.75301 36.1985 7.82879V13.3982H32.9207C30.3345 13.3982 29.8337 14.6271 29.8337 16.4308V20.4075H36.0172L35.2115 26.6514H29.8337V42.6035H40.3265C41.5838 42.6038 42.6033 41.5849 42.6035 40.3275C42.6035 40.3273 42.6035 40.327 42.6035 40.3265V3.62851C42.603 2.37193 41.5836 1.35326 40.3265 1.35352Z" fill="#5077FE"/>
</svg>
