<svg width="70" height="70" viewBox="0 0 70 70" fill="none" xmlns="http://www.w3.org/2000/svg">
<path d="M6.81818 35C6.07075 35 5.35394 34.7015 4.82543 34.1701C4.29691 33.6388 4 32.9181 4 32.1667V18C4 17.2486 4.29691 16.5279 4.82543 15.9965C5.35394 15.4652 6.07075 15.1667 6.81818 15.1667C7.56561 15.1667 8.28243 15.4652 8.81094 15.9965C9.33945 16.5279 9.63636 17.2486 9.63636 18V32.1667C9.63636 32.9181 9.33945 33.6388 8.81094 34.1701C8.28243 34.7015 7.56561 35 6.81818 35ZM66 32.1667V18C66 17.2486 65.7031 16.5279 65.1746 15.9965C64.6461 15.4652 63.9292 15.1667 63.1818 15.1667C62.4344 15.1667 61.7176 15.4652 61.1891 15.9965C60.6605 16.5279 60.3636 17.2486 60.3636 18V32.1667C60.3636 32.9181 60.6605 33.6388 61.1891 34.1701C61.7176 34.7015 62.4344 35 63.1818 35C63.9292 35 64.6461 34.7015 65.1746 34.1701C65.7031 33.6388 66 32.9181 66 32.1667ZM49.0909 1H20.9091C18.6668 1 16.5164 1.89553 14.9308 3.48959C13.3453 5.08365 12.4545 7.24566 12.4545 9.5V32.1667C12.4565 37.479 14.3143 42.6218 17.7035 46.6973C21.0928 50.7728 25.7982 53.5221 30.9982 54.465C31.3268 54.5185 31.626 54.6873 31.8426 54.9415C32.0593 55.1956 32.1794 55.5186 32.1818 55.8533V61.9167C32.1818 62.2924 32.0334 62.6527 31.7691 62.9184C31.5049 63.1841 31.1464 63.3333 30.7727 63.3333H26.5455C25.798 63.3333 25.0812 63.6318 24.5527 64.1632C24.0242 64.6945 23.7273 65.4152 23.7273 66.1667C23.7273 66.9181 24.0242 67.6388 24.5527 68.1701C25.0812 68.7015 25.798 69 26.5455 69H43.4545C44.202 69 44.9188 68.7015 45.4473 68.1701C45.9758 67.6388 46.2727 66.9181 46.2727 66.1667C46.2727 65.4152 45.9758 64.6945 45.4473 64.1632C44.9188 63.6318 44.202 63.3333 43.4545 63.3333H39.2273C38.8536 63.3333 38.4951 63.1841 38.2309 62.9184C37.9666 62.6527 37.8182 62.2924 37.8182 61.9167V55.825C37.8206 55.4903 37.9407 55.1673 38.1574 54.9131C38.374 54.659 38.6732 54.4902 39.0018 54.4367C44.1971 53.4946 48.8988 50.7495 52.2874 46.6799C55.6761 42.6102 57.5369 37.4741 57.5455 32.1667V9.5C57.5455 7.24566 56.6547 5.08365 55.0692 3.48959C53.4836 1.89553 51.3332 1 49.0909 1V1Z" fill="#4643B6"/>
</svg>
