<svg width="18" height="18" viewBox="0 0 18 18" fill="none" xmlns="http://www.w3.org/2000/svg">
<g clip-path="url(#clip0)">
<path d="M18 0.500009V7.79001C17.9986 7.88787 17.9686 7.98318 17.9135 8.06412C17.8585 8.14505 17.7809 8.20806 17.6904 8.24532C17.5999 8.28259 17.5005 8.29247 17.4044 8.27375C17.3083 8.25503 17.2199 8.20853 17.15 8.14001L14.56 5.56001C14.5135 5.51314 14.4582 5.47595 14.3973 5.45056C14.3364 5.42518 14.271 5.41211 14.205 5.41211C14.139 5.41211 14.0736 5.42518 14.0127 5.45056C13.9518 5.47595 13.8965 5.51314 13.85 5.56001L5.56 13.85C5.51314 13.8965 5.47594 13.9518 5.45055 14.0127C5.42517 14.0736 5.4121 14.139 5.4121 14.205C5.4121 14.271 5.42517 14.3364 5.45055 14.3973C5.47594 14.4582 5.51314 14.5135 5.56 14.56L8.15 17.15C8.21852 17.2199 8.26502 17.3084 8.28374 17.4044C8.30247 17.5005 8.29258 17.5999 8.25532 17.6904C8.21805 17.7809 8.15504 17.8585 8.07411 17.9135C7.99317 17.9686 7.89786 17.9986 7.8 18H0.5C0.367392 18 0.240215 17.9473 0.146447 17.8536C0.0526784 17.7598 0 17.6326 0 17.5V10.21C0.00137473 10.1121 0.0314408 10.0168 0.0864709 9.9359C0.141501 9.85496 0.219075 9.79196 0.309576 9.75469C0.400077 9.71743 0.499524 9.70754 0.59559 9.72626C0.691655 9.74498 0.780114 9.79149 0.85 9.86001L3.44 12.45C3.48648 12.4969 3.54178 12.5341 3.60271 12.5595C3.66364 12.5848 3.72899 12.5979 3.795 12.5979C3.86101 12.5979 3.92636 12.5848 3.98729 12.5595C4.04822 12.5341 4.10352 12.4969 4.15 12.45L12.44 4.16001C12.4869 4.11353 12.5241 4.05823 12.5494 3.9973C12.5748 3.93637 12.5879 3.87101 12.5879 3.80501C12.5879 3.739 12.5748 3.67365 12.5494 3.61272C12.5241 3.55179 12.4869 3.49649 12.44 3.45001L9.85 0.850009C9.7809 0.779513 9.73421 0.69014 9.71582 0.593152C9.69742 0.496164 9.70816 0.395903 9.74665 0.305003C9.78515 0.214104 9.8497 0.136634 9.93215 0.0823585C10.0146 0.0280824 10.1113 -0.000571234 10.21 8.62999e-06H17.5C17.6326 8.62999e-06 17.7598 0.0526871 17.8536 0.146455C17.9473 0.240223 18 0.3674 18 0.500009Z" fill="#222058"/>
</g>
<defs>
<clipPath id="clip0">
<rect width="18" height="18" fill="white"/>
</clipPath>
</defs>
</svg>
