<svg width="44" height="44" viewBox="0 0 44 44" fill="none" xmlns="http://www.w3.org/2000/svg">
<g clip-path="url(#clip0)">
<path d="M43.9563 12.9361C43.8532 10.5982 43.4752 8.99095 42.9336 7.59822C42.3749 6.11988 41.5153 4.79632 40.3892 3.69603C39.2889 2.57863 37.9566 1.71036 36.4954 1.16038C35.0946 0.618804 33.4957 0.240739 31.1579 0.137661C28.8025 0.0258534 28.0548 0 22.0809 0C16.1071 0 15.3594 0.0258534 13.0128 0.128931C10.6749 0.232009 9.06761 0.61041 7.67522 1.15165C6.19654 1.71036 4.87297 2.5699 3.77269 3.69603C2.65529 4.79632 1.78735 6.12861 1.23704 7.58983C0.695464 8.99095 0.317399 10.5895 0.214321 12.9274C0.102514 15.2827 0.0766602 16.0305 0.0766602 22.0043C0.0766602 27.9781 0.102514 28.7259 0.205592 31.0725C0.30867 33.4104 0.68707 35.0176 1.22865 36.4104C1.78735 37.8887 2.65529 39.2123 3.77269 40.3126C4.87297 41.43 6.20527 42.2982 7.66649 42.8482C9.06761 43.3898 10.6662 43.7679 13.0044 43.8709C15.3507 43.9743 16.0987 43.9999 22.0726 43.9999C28.0464 43.9999 28.7941 43.9743 31.1407 43.8709C33.4786 43.7679 35.0859 43.3898 36.4783 42.8482C39.4353 41.705 41.7732 39.3671 42.9165 36.4104C43.4577 35.0092 43.8361 33.4104 43.9392 31.0725C44.0423 28.7259 44.0681 27.9781 44.0681 22.0043C44.0681 16.0305 44.0594 15.2827 43.9563 12.9361ZM39.994 30.9006C39.8993 33.0494 39.5384 34.2098 39.2376 34.9834C38.4982 36.9002 36.9769 38.4216 35.06 39.1609C34.2865 39.4617 33.1177 39.8227 30.9772 39.917C28.6565 40.0205 27.9604 40.046 22.0897 40.046C16.2189 40.046 15.5142 40.0205 13.2018 39.917C11.053 39.8227 9.89257 39.4617 9.11898 39.1609C8.16509 38.8084 7.29682 38.2497 6.59206 37.519C5.86145 36.8056 5.30275 35.946 4.9502 34.9921C4.64936 34.2185 4.28842 33.0494 4.19407 30.9093C4.09066 28.5885 4.06514 27.8922 4.06514 22.0214C4.06514 16.1507 4.09066 15.4459 4.19407 13.1339C4.28842 10.985 4.64936 9.82464 4.9502 9.05105C5.30275 8.09683 5.86145 7.22889 6.60079 6.5238C7.31394 5.79318 8.17348 5.23448 9.12771 4.88227C9.9013 4.58143 11.0704 4.22049 13.2105 4.12581C15.5313 4.02273 16.2277 3.99687 22.0981 3.99687C27.9775 3.99687 28.6736 4.02273 30.9859 4.12581C33.1348 4.22049 34.2952 4.58143 35.0688 4.88227C36.0227 5.23448 36.8909 5.79318 37.5957 6.5238C38.3263 7.23728 38.885 8.09683 39.2376 9.05105C39.5384 9.82464 39.8993 10.9934 39.994 13.1339C40.0971 15.4546 40.123 16.1507 40.123 22.0214C40.123 27.8922 40.0971 28.5798 39.994 30.9006Z" fill="#5077FE"/>
<path d="M22.0813 10.7014C15.8412 10.7014 10.7783 15.764 10.7783 22.0044C10.7783 28.2448 15.8412 33.3074 22.0813 33.3074C28.3217 33.3074 33.3843 28.2448 33.3843 22.0044C33.3843 15.764 28.3217 10.7014 22.0813 10.7014ZM22.0813 29.3364C18.0331 29.3364 14.7493 26.053 14.7493 22.0044C14.7493 17.9558 18.0331 14.6724 22.0813 14.6724C26.1299 14.6724 29.4133 17.9558 29.4133 22.0044C29.4133 26.053 26.1299 29.3364 22.0813 29.3364Z" fill="#5077FE"/>
<path d="M36.4704 10.2545C36.4704 11.7116 35.2889 12.8932 33.8314 12.8932C32.3742 12.8932 31.1926 11.7116 31.1926 10.2545C31.1926 8.79692 32.3742 7.61572 33.8314 7.61572C35.2889 7.61572 36.4704 8.79692 36.4704 10.2545Z" fill="#5077FE"/>
</g>
<defs>
<clipPath id="clip0">
<rect width="44" height="44" fill="white"/>
</clipPath>
</defs>
</svg>
