<svg width="118" height="16" viewBox="0 0 118 16" fill="none" xmlns="http://www.w3.org/2000/svg">
<path d="M0 0.258064V12.3011H8.77432V8.65376H4.45466V0.258064H0Z" fill="white"/>
<path d="M14.2596 12.5591C14.9345 12.5591 15.5757 12.4731 16.1832 12.2667C16.7738 12.0602 17.2969 11.7677 17.7356 11.372C18.1743 10.9763 18.5118 10.4774 18.7649 9.89247C19.018 9.30753 19.153 8.61936 19.153 7.82796V7.48387C19.153 6.74409 19.018 6.09032 18.7649 5.52258C18.5118 4.95484 18.1743 4.47312 17.7356 4.09462C17.2969 3.71613 16.7738 3.42366 16.1832 3.2172C15.5757 3.02796 14.9345 2.92473 14.2596 2.92473C13.5678 2.92473 12.9266 3.02796 12.336 3.2172C11.7285 3.42366 11.2223 3.71613 10.7836 4.09462C10.3449 4.47312 9.99055 4.95484 9.73744 5.52258C9.48434 6.09032 9.36622 6.74409 9.36622 7.48387V7.82796C9.36622 8.63656 9.48434 9.34194 9.73744 9.92688C9.99055 10.529 10.3449 11.028 10.7836 11.4065C11.2223 11.8022 11.7285 12.0946 12.336 12.2839C12.9266 12.4731 13.5678 12.5591 14.2596 12.5591ZM14.2596 9.49677C13.9221 9.49677 13.6521 9.37634 13.4665 9.11828C13.264 8.87742 13.1797 8.44731 13.1797 7.82796V7.48387C13.1797 6.96774 13.264 6.58925 13.4665 6.34839C13.6521 6.10753 13.9221 5.9871 14.2596 5.9871C14.5971 5.9871 14.8502 6.10753 15.0527 6.34839C15.2383 6.58925 15.3395 6.96774 15.3395 7.48387V7.82796C15.3395 8.44731 15.2383 8.87742 15.0527 9.11828C14.8502 9.37634 14.5971 9.49677 14.2596 9.49677Z" fill="white"/>
<path d="M24.3897 16C26.1446 16 27.4101 15.6387 28.1863 14.8989C28.9625 14.1591 29.3675 13.0409 29.3675 11.5269V3.1828H25.9253V4.21505C25.824 4.02581 25.689 3.85376 25.554 3.68172C25.4022 3.52688 25.2166 3.38925 25.0141 3.28602C24.7947 3.1828 24.5416 3.09677 24.2548 3.02796C23.9679 2.95914 23.6304 2.92473 23.2255 2.92473C22.6855 2.92473 22.213 3.02796 21.7743 3.23441C21.3356 3.44086 20.9475 3.75054 20.6438 4.12903C20.3401 4.50753 20.087 4.98925 19.9182 5.55699C19.7495 6.12473 19.6651 6.76129 19.6651 7.48387V7.81075C19.6651 8.60215 19.7495 9.27312 19.952 9.84086C20.1376 10.4258 20.3907 10.8903 20.7113 11.2688C21.0319 11.6473 21.4031 11.9398 21.8418 12.1118C22.2637 12.3011 22.7192 12.3871 23.2086 12.3871C23.7148 12.3871 24.1704 12.3011 24.5922 12.1118C25.0141 11.9226 25.3684 11.6473 25.6553 11.2688V11.957C25.6553 12.4387 25.554 12.7828 25.3515 12.9892C25.1491 13.1957 24.8791 13.2817 24.5585 13.2817C24.2716 13.2817 24.0691 13.2645 23.9679 13.1957C23.8498 13.1269 23.7654 13.0409 23.7148 12.9032H20.0026C20.0363 13.3161 20.1207 13.7118 20.2726 14.0903C20.4244 14.4688 20.6775 14.8129 21.015 15.0882C21.3525 15.3634 21.7912 15.5871 22.3312 15.7591C22.8711 15.9312 23.5629 16 24.3897 16ZM24.5247 9.32473C24.2885 9.32473 24.0523 9.22151 23.816 8.98065C23.5798 8.75699 23.4786 8.3785 23.4786 7.82796V7.48387C23.4786 6.96774 23.5798 6.58925 23.7992 6.34839C24.0017 6.10753 24.2548 5.9871 24.5247 5.9871C24.8116 5.9871 25.0647 6.10753 25.3009 6.33118C25.5372 6.55484 25.6553 6.89892 25.6553 7.38065V7.89677C25.6553 8.4129 25.5372 8.77419 25.3009 8.99785C25.0647 9.22151 24.7947 9.32473 24.5247 9.32473Z" fill="white"/>
<path d="M35.1045 12.5591C35.7795 12.5591 36.4207 12.4731 37.0281 12.2667C37.6187 12.0602 38.1418 11.7677 38.5805 11.372C39.0192 10.9763 39.3567 10.4774 39.6098 9.89247C39.8629 9.30753 39.9979 8.61936 39.9979 7.82796V7.48387C39.9979 6.74409 39.8629 6.09032 39.6098 5.52258C39.3567 4.95484 39.0192 4.47312 38.5805 4.09462C38.1418 3.71613 37.6187 3.42366 37.0281 3.2172C36.4207 3.02796 35.7795 2.92473 35.1045 2.92473C34.4127 2.92473 33.7715 3.02796 33.1809 3.2172C32.5735 3.42366 32.0673 3.71613 31.6286 4.09462C31.1898 4.47312 30.8355 4.95484 30.5824 5.52258C30.3293 6.09032 30.2112 6.74409 30.2112 7.48387V7.82796C30.2112 8.63656 30.3293 9.34194 30.5824 9.92688C30.8355 10.529 31.1898 11.028 31.6286 11.4065C32.0673 11.8022 32.5735 12.0946 33.1809 12.2839C33.7715 12.4731 34.4127 12.5591 35.1045 12.5591ZM35.1045 9.49677C34.7671 9.49677 34.4971 9.37634 34.3115 9.11828C34.109 8.87742 34.0246 8.44731 34.0246 7.82796V7.48387C34.0246 6.96774 34.109 6.58925 34.3115 6.34839C34.4971 6.10753 34.7671 5.9871 35.1045 5.9871C35.442 5.9871 35.6951 6.10753 35.8976 6.34839C36.0832 6.58925 36.1845 6.96774 36.1845 7.48387V7.82796C36.1845 8.44731 36.0832 8.87742 35.8976 9.11828C35.6951 9.37634 35.442 9.49677 35.1045 9.49677Z" fill="white"/>
<path d="M46.5846 12.5591C47.327 12.5591 48.0526 12.4731 48.7276 12.3011C49.4025 12.129 49.9931 11.8538 50.4993 11.4581C51.0055 11.0624 51.4273 10.5462 51.7311 9.89247C52.0348 9.23871 52.2035 8.44731 52.2373 7.48387H47.8501C47.7826 8.05161 47.6308 8.43011 47.3945 8.60215C47.1583 8.7914 46.8883 8.87742 46.5846 8.87742C46.1459 8.87742 45.8084 8.68817 45.5384 8.27527C45.2684 7.87957 45.1503 7.24301 45.1503 6.36559V6.02151C45.1503 5.5914 45.1841 5.23011 45.2684 4.92043C45.3359 4.62796 45.4541 4.3871 45.589 4.19785C45.724 4.02581 45.8759 3.88817 46.0446 3.80215C46.2134 3.73333 46.3821 3.68172 46.5846 3.68172C46.8714 3.68172 47.1414 3.78495 47.3945 3.97419C47.6308 4.16344 47.7826 4.52473 47.8501 5.07527H52.2373C52.2035 4.14624 52.0348 3.37204 51.7311 2.71828C51.4105 2.08172 50.9886 1.56559 50.4824 1.15269C49.9593 0.739785 49.3688 0.447312 48.6938 0.275268C48.0189 0.103225 47.327 0 46.5846 0C45.7578 0 44.9816 0.120431 44.256 0.344086C43.5304 0.584946 42.8893 0.946236 42.3493 1.42796C41.8093 1.90968 41.3706 2.52903 41.0669 3.28602C40.7463 4.04301 40.5944 4.95484 40.5944 6.02151V6.36559C40.5944 7.50108 40.7463 8.44731 41.05 9.23871C41.3537 10.0301 41.7756 10.6667 42.3155 11.1484C42.8555 11.6473 43.4798 12.0086 44.2223 12.2323C44.9478 12.4559 45.7409 12.5591 46.5846 12.5591Z" fill="white"/>
<path d="M57.6303 12.5591C58.3052 12.5591 58.9464 12.4731 59.5539 12.2667C60.1445 12.0602 60.6675 11.7677 61.1063 11.372C61.545 10.9763 61.8824 10.4774 62.1355 9.89247C62.3887 9.30753 62.5236 8.61936 62.5236 7.82796V7.48387C62.5236 6.74409 62.3887 6.09032 62.1355 5.52258C61.8824 4.95484 61.545 4.47312 61.1063 4.09462C60.6675 3.71613 60.1445 3.42366 59.5539 3.2172C58.9464 3.02796 58.3052 2.92473 57.6303 2.92473C56.9384 2.92473 56.2972 3.02796 55.7067 3.2172C55.0992 3.42366 54.593 3.71613 54.1543 4.09462C53.7156 4.47312 53.3612 4.95484 53.1081 5.52258C52.855 6.09032 52.7369 6.74409 52.7369 7.48387V7.82796C52.7369 8.63656 52.855 9.34194 53.1081 9.92688C53.3612 10.529 53.7156 11.028 54.1543 11.4065C54.593 11.8022 55.0992 12.0946 55.7067 12.2839C56.2972 12.4731 56.9384 12.5591 57.6303 12.5591ZM57.6303 9.49677C57.2928 9.49677 57.0228 9.37634 56.8372 9.11828C56.6347 8.87742 56.5504 8.44731 56.5504 7.82796V7.48387C56.5504 6.96774 56.6347 6.58925 56.8372 6.34839C57.0228 6.10753 57.2928 5.9871 57.6303 5.9871C57.9677 5.9871 58.2208 6.10753 58.4233 6.34839C58.6089 6.58925 58.7102 6.96774 58.7102 7.48387V7.82796C58.7102 8.44731 58.6089 8.87742 58.4233 9.11828C58.2208 9.37634 57.9677 9.49677 57.6303 9.49677Z" fill="white"/>
<path d="M63.3733 3.1828V12.3011H67.0855V6.88172C67.0855 6.57204 67.1192 6.33118 67.2205 6.19355C67.3048 6.05591 67.4567 5.9871 67.6929 5.9871C67.8954 5.9871 68.0304 6.05591 68.1316 6.19355C68.216 6.33118 68.2666 6.55484 68.2666 6.88172V12.3011H71.9789V6.88172C71.9789 6.57204 72.0126 6.33118 72.1138 6.19355C72.1982 6.05591 72.3501 5.9871 72.5863 5.9871C72.7888 5.9871 72.9238 6.05591 73.025 6.19355C73.1094 6.33118 73.16 6.55484 73.16 6.88172V12.3011H76.8722V6.10753C76.8722 5.07527 76.636 4.30107 76.1973 3.75054C75.7586 3.2 75.033 2.92473 74.0206 2.92473C73.3288 2.92473 72.7719 3.04516 72.3669 3.28602C71.9451 3.52688 71.6414 3.81936 71.4558 4.12903C71.2533 3.73333 70.9833 3.44086 70.6627 3.23441C70.3252 3.02796 69.8696 2.92473 69.2622 2.92473C68.5872 2.92473 68.0642 3.06237 67.6929 3.30323C67.3048 3.56129 67.018 3.85376 66.8155 4.19785V3.1828H63.3733Z" fill="white"/>
<path d="M77.973 3.1828V15.7419H81.6852V11.3548C81.9552 11.7677 82.3095 12.0602 82.7313 12.2667C83.1532 12.4731 83.6257 12.5591 84.1319 12.5591C84.6043 12.5591 85.0599 12.4731 85.4986 12.2839C85.9205 12.1118 86.2917 11.8194 86.6123 11.4409C86.9329 11.0624 87.186 10.5806 87.3885 9.9957C87.5741 9.41075 87.6753 8.72258 87.6753 7.91398V7.56989C87.6753 6.8129 87.591 6.12473 87.4222 5.53979C87.2535 4.95484 87.0004 4.47312 86.6967 4.09462C86.3929 3.71613 86.0217 3.42366 85.583 3.2172C85.1443 3.02796 84.655 2.92473 84.1319 2.92473C83.7269 2.92473 83.3725 2.95914 83.0857 3.02796C82.782 3.09677 82.5289 3.1828 82.3264 3.28602C82.107 3.38925 81.9214 3.52688 81.7864 3.68172C81.6346 3.85376 81.5164 4.02581 81.4152 4.21505V3.1828H77.973ZM82.8157 9.49677C82.5289 9.49677 82.2758 9.39355 82.0395 9.15269C81.8033 8.92903 81.6852 8.55054 81.6852 8V7.48387C81.6852 6.96774 81.7864 6.58925 82.0227 6.34839C82.242 6.10753 82.4951 5.9871 82.7988 5.9871C83.0688 5.9871 83.3219 6.10753 83.5413 6.34839C83.7438 6.58925 83.8619 7.00215 83.8619 7.56989V7.91398C83.8619 8.49893 83.7438 8.91183 83.5075 9.15269C83.2713 9.39355 83.0519 9.49677 82.8157 9.49677Z" fill="white"/>
<path d="M91.1344 12.5591C91.5057 12.5591 91.8431 12.5247 92.1131 12.4559C92.3831 12.3871 92.6025 12.3011 92.8049 12.1806C93.0074 12.0602 93.1762 11.9226 93.3112 11.7677C93.4461 11.6129 93.5643 11.4409 93.6655 11.2688C93.6655 11.5441 93.6824 11.7505 93.7161 11.8882C93.7499 12.043 93.7836 12.1806 93.8342 12.3011H97.3777C97.3102 11.957 97.2765 11.6129 97.2427 11.2516C97.209 10.8903 97.209 10.4602 97.209 9.9785V6.7957C97.209 6.09032 97.0909 5.48817 96.8884 4.98925C96.669 4.50753 96.3653 4.11183 95.9941 3.80215C95.6228 3.49247 95.1673 3.26882 94.6442 3.13118C94.1042 2.99355 93.5305 2.92473 92.9062 2.92473C92.1806 2.92473 91.5563 3.01075 91.0332 3.16559C90.4932 3.32043 90.0545 3.52688 89.7002 3.80215C89.3458 4.07742 89.0759 4.4043 88.9071 4.7828C88.7215 5.16129 88.6203 5.57419 88.6034 6.02151H92.1469C92.1806 5.90108 92.2481 5.81505 92.3493 5.74624C92.4506 5.67742 92.6025 5.64301 92.8218 5.64301C93.0243 5.64301 93.1762 5.71183 93.3112 5.83226C93.4293 5.95269 93.4968 6.15914 93.4968 6.45161V6.69247H91.5563C90.3414 6.69247 89.464 6.96774 88.924 7.48387C88.3672 8.01721 88.0972 8.73979 88.0972 9.63441C88.0972 10.0473 88.1647 10.443 88.2997 10.7871C88.4347 11.1484 88.6203 11.4581 88.8903 11.7161C89.1434 11.9914 89.464 12.1978 89.8352 12.3355C90.2064 12.4903 90.6451 12.5591 91.1344 12.5591ZM92.5687 9.84086C92.13 9.84086 91.9106 9.65161 91.9106 9.25591C91.9106 8.87742 92.13 8.68817 92.5687 8.68817H93.4968V8.86022C93.4968 9.51398 93.1762 9.84086 92.5687 9.84086Z" fill="white"/>
<path d="M98.3071 3.1828V12.3011H102.019V6.96774C102.019 6.67527 102.087 6.43441 102.239 6.26237C102.374 6.09032 102.61 5.9871 102.947 5.9871C103.2 5.9871 103.386 6.09032 103.521 6.26237C103.639 6.43441 103.707 6.67527 103.707 6.96774V12.3011H107.419V6.19355C107.419 5.12688 107.166 4.30107 106.66 3.75054C106.153 3.2 105.411 2.92473 104.466 2.92473C103.724 2.92473 103.133 3.06237 102.694 3.30323C102.256 3.56129 101.952 3.87097 101.749 4.21505V3.1828H98.3071Z" fill="white"/>
<path d="M110.069 16C110.727 16 111.301 15.9312 111.79 15.7935C112.28 15.6559 112.719 15.4323 113.09 15.1226C113.461 14.8301 113.782 14.4516 114.052 13.9699C114.322 13.5054 114.558 12.9548 114.794 12.3011L118 3.1828H114.541L113.09 8L111.504 3.1828H107.538L111.082 12.3011C110.981 12.5591 110.862 12.7312 110.727 12.8172C110.592 12.9032 110.373 12.9376 110.069 12.9376C109.901 12.9376 109.732 12.9204 109.563 12.886V15.9484C109.732 15.9828 109.901 16 110.069 16Z" fill="white"/>
</svg>
