<svg width="170" height="36" viewBox="0 0 170 36" fill="none" xmlns="http://www.w3.org/2000/svg">
<g clip-path="url(#clip0)">
<path fill-rule="evenodd" clip-rule="evenodd" d="M150 4.69038L144.812 23.9789H138.748L140.861 16.2635H134.331L132.218 23.9789H126.153L131.33 4.69038H137.406L135.388 12.195H141.917L143.935 4.69038H150ZM129.133 4.69038L125.403 18.7615C125.072 20.3028 124.284 21.7093 123.142 22.7984C121.833 23.6649 120.27 24.0659 118.704 23.9368H105.899L107.294 18.6667H119.349L120.025 16.1686H111.921C110.817 16.2918 109.702 16.0472 108.752 15.473C108.541 15.2655 108.379 15.0145 108.277 14.7376C108.175 14.4608 108.135 14.1649 108.16 13.8709C108.182 13.2704 108.282 12.6753 108.456 12.1001L110.474 4.59552H116.38L114.362 12.1001H121.177L123.195 4.59552L129.133 4.69038ZM91.1809 11.278H86.7011L85.2536 16.7273H89.744L91.1809 11.278ZM101.335 11.278H96.8758L95.4283 16.7273H99.887L101.335 11.278ZM107.674 8.82213C107.629 9.65509 107.483 10.4796 107.241 11.278L105.793 16.7273C105.532 18.1466 104.86 19.4586 103.86 20.5007C102.852 21.3017 101.092 21.7022 98.5769 21.7022H94.0865L93.4631 23.9789H87.7682L88.4233 21.7444H83.9012C82.8349 21.7892 81.7677 21.6827 80.7315 21.4282C80.2236 21.3269 79.7676 21.0508 79.4431 20.6482C79.1187 20.2455 78.9464 19.7418 78.9564 19.2253C79.0018 18.3923 79.1472 17.5678 79.3896 16.7694L80.8371 11.3202C81.1032 9.89598 81.7872 8.58268 82.8023 7.54677C83.8589 6.72463 85.56 6.31357 88.0112 6.31357H92.4911L92.9771 4.52174H98.672L98.186 6.31357H102.645C105.318 6.31357 106.871 6.78788 107.346 7.73649C107.518 8.07348 107.612 8.44437 107.621 8.82213H107.674ZM80.6047 4.69038L75.4169 23.9789H69.5953L72.5748 13.0804L62.6642 23.9789H56.7263L61.914 4.69038H67.7674L64.8618 15.5995L74.7724 4.69038H80.6047ZM77.0863 0C76.8741 0.968557 76.4321 1.87219 75.7973 2.63505C75.4334 2.97128 75.0056 3.23128 74.5392 3.39965C74.0728 3.56802 73.5772 3.64135 73.0819 3.61528H70.0496C68.4859 3.61528 67.7146 2.97233 67.7146 1.69697C67.726 1.12206 67.8149 0.551301 67.9787 0H71.0111L70.5884 1.58103H73.6313L74.0645 0H77.0863ZM52.4049 9.48617H45.738L44.9667 12.4269H51.623L52.4049 9.48617ZM59.6847 4.71146L54.4969 24H48.5062L50.6193 16.2846H43.9629L41.8498 24H35.8591L39.7472 9.48617C39.901 8.69727 40.211 7.94692 40.6591 7.27907C41.1072 6.61122 41.6844 6.0393 42.357 5.59684C43.8191 4.91812 45.4278 4.61381 47.0375 4.71146H59.6847ZM40.0219 4.71146L38.6801 9.69697H32.7739L28.928 23.9789H22.9161L26.7515 9.67589H20L21.3418 4.69038L40.0219 4.71146Z" fill="white"/>
<path fill-rule="evenodd" clip-rule="evenodd" d="M150 27.9963L147.816 35.9813H145.357L146.592 31.4613L142.371 35.9813H139.912L142.097 27.9963H144.555L143.321 32.506L147.541 27.9963H150ZM148.512 26.0517C148.417 26.4328 148.233 26.7869 147.974 27.086C147.822 27.2262 147.643 27.335 147.447 27.406C147.251 27.4771 147.043 27.509 146.834 27.4998H145.568C144.903 27.4998 144.576 27.2309 144.576 26.693C144.584 26.458 144.623 26.225 144.692 26H145.969L145.79 26.6516H147.067L147.246 26L148.512 26.0517ZM141.126 27.9963L138.942 35.9813H136.494L137.718 31.4613L133.497 35.9813H131.028L133.212 27.9963H135.681L134.446 32.506L138.667 27.9963H141.126ZM132.315 27.9963L130.131 35.9813H127.63L128.495 32.7852H125.752L124.876 35.9813H122.354L124.464 27.9963H127.018L126.163 31.0993H128.917L129.761 27.9963H132.315ZM120.433 29.9718H117.679L117.342 31.1924H120.149L120.433 29.9718ZM123.494 27.9963L121.309 35.9813H118.84L119.716 32.7852H116.909L116.023 35.9813H113.511L115.157 29.9718C115.214 29.6472 115.336 29.337 115.518 29.0598C115.699 28.7826 115.935 28.544 116.213 28.3583C116.825 28.0769 117.5 27.9523 118.175 27.9963H123.494ZM114.714 27.9963L112.53 35.9813H110.029L111.644 30.0649H108.89L107.275 35.9917H104.722L106.906 27.9963H114.714ZM104.722 27.9963L103.666 35.9813H101.25L101.746 32.4025C101.788 32.1378 101.844 31.8754 101.915 31.6164L99.6672 35.9813H97.5568L97.6834 31.6164C97.6092 31.8839 97.5176 32.1465 97.4091 32.4025L95.974 35.9813H93.3783L96.7127 27.9963H99.7411V31.1924C99.7428 31.5729 99.6931 31.952 99.5933 32.3198C99.7171 31.9275 99.876 31.5468 100.068 31.182L101.757 27.9963H104.722ZM91.5422 30.0649H88.7354L87.6802 33.8196H90.487L91.5422 30.0649ZM94.2013 29.1961C94.1961 29.4905 94.1499 29.7828 94.0641 30.0649L93.0089 33.8403C92.8829 34.5225 92.5078 35.1365 91.9537 35.5676C91.328 35.8911 90.623 36.0379 89.9172 35.9917H87.1209C86.6541 36.0091 86.1875 35.9533 85.7386 35.8262C85.5202 35.7542 85.3319 35.6142 85.2023 35.4274C85.0727 35.2406 85.0091 35.0174 85.0211 34.7919C85.0317 34.4659 85.0849 34.1426 85.1794 33.8299L86.2346 30.0546C86.354 29.3868 86.732 28.7902 87.2898 28.3893C87.9094 28.0827 88.6024 27.9468 89.2946 27.9963H92.1015C92.5684 27.976 93.0355 28.032 93.4838 28.1618C93.7004 28.2332 93.8874 28.3717 94.0168 28.5564C94.1462 28.7411 94.211 28.9619 94.2013 29.1857V29.1961ZM86.0974 27.9963L82.7102 31.0993C84.0714 31.0993 84.7468 31.5854 84.7468 32.5473C84.7395 32.8231 84.7006 33.0972 84.6307 33.3645L83.9132 35.9606H81.3912L82.2882 32.7025H79.4708L78.5739 35.9606H76.0519L78.2362 27.9963H80.7581L79.8929 31.0993H80.1461L83.5333 27.9963H86.0974ZM69.2143 29.9718H66.4286L66.1015 31.1924H68.8555L69.2143 29.9718ZM72.2744 27.9963L70.0901 35.9813H67.5471L68.4229 32.7852H65.6161L64.7403 35.9813H62.2078L63.8433 29.9718C63.9025 29.6481 64.0261 29.339 64.2072 29.0621C64.3882 28.7853 64.6231 28.5461 64.8985 28.3583C65.511 28.0769 66.1863 27.9523 66.8612 27.9963H72.2744ZM63.4951 27.9963L61.3109 35.9813H58.7362L60.3507 30.0649H57.5966L55.9821 35.9917H53.4286L55.6128 27.9963H63.4951ZM54.6737 27.9963L52.4895 35.9813H49.9148L51.5292 30.0649H48.7857L47.1607 35.9917H44.6071L46.7914 27.9963H54.6737ZM45.8839 27.9963L44.2695 33.8092C44.1439 34.4543 43.8198 35.0463 43.3409 35.5055C42.7923 35.8691 42.133 36.0371 41.4732 35.9813H36.0812L36.6615 33.8092H41.7476L42.0325 32.7749H38.6136C38.15 32.825 37.6824 32.7232 37.2841 32.4853C37.1965 32.3992 37.1294 32.2952 37.0874 32.1808C37.0455 32.0664 37.0298 31.9443 37.0414 31.8233C37.0469 31.5746 37.0859 31.3276 37.1575 31.0889L38.0122 27.9859H40.5024L39.6477 31.0889H42.4862L43.3409 27.9859L45.8839 27.9963ZM34.2768 30.0649H31.6071L31.3117 31.1613H33.9708L34.2768 30.0649ZM36.957 29.1237C36.9474 29.4742 36.8906 29.822 36.7882 30.158L36.5138 31.1406C36.4517 31.4425 36.3257 31.7283 36.1439 31.9795C35.9622 32.2307 35.7287 32.4418 35.4586 32.5991C35.0566 32.8082 34.6048 32.9081 34.1502 32.8887H30.8685L30.0138 35.9917H27.4813L29.6656 27.9963H35.1737C35.5819 27.9729 35.9908 28.0292 36.3766 28.1618C36.5666 28.2367 36.7268 28.3699 36.8333 28.5413C36.9398 28.7128 36.9869 28.9135 36.9675 29.1133L36.957 29.1237ZM29.0008 27.9963L28.4416 30.0649H24.2208L22.6063 35.9917H20L22.1843 27.9963H29.0008Z" fill="white"/>
</g>
<defs>
<clipPath id="clip0">
<rect width="170" height="36" fill="white"/>
</clipPath>
</defs>
</svg>
