<svg width="70" height="70" viewBox="0 0 70 70" fill="none" xmlns="http://www.w3.org/2000/svg">
<path d="M34.4858 1C16.3691 1 10 14.7133 10 23.3833C10 32.62 11.6701 35.935 32.1363 67.6967C32.3953 68.0824 32.745 68.3984 33.1547 68.6169C33.5645 68.8354 34.0216 68.9497 34.4858 68.9497C34.9501 68.9497 35.4072 68.8354 35.8169 68.6169C36.2267 68.3984 36.5764 68.0824 36.8354 67.6967C57.3016 35.935 58.9717 32.6483 58.9717 23.3833C59 14.7133 52.6025 1 34.4858 1ZM34.4858 31.8833C32.8062 31.8833 31.1644 31.3848 29.7678 30.4508C28.3713 29.5168 27.2828 28.1893 26.6401 26.6361C25.9973 25.083 25.8291 23.3739 26.1568 21.7251C26.4845 20.0762 27.2933 18.5617 28.481 17.3729C29.6686 16.1842 31.1818 15.3746 32.8291 15.0467C34.4764 14.7187 36.1839 14.887 37.7357 15.5304C39.2874 16.1737 40.6137 17.2632 41.5469 18.661C42.48 20.0588 42.978 21.7022 42.978 23.3833C42.978 25.6377 42.0833 27.7997 40.4907 29.3937C38.8981 30.9878 36.7381 31.8833 34.4858 31.8833Z" fill="#4643B6"/>
</svg>
