<svg width="70" height="70" viewBox="0 0 70 70" fill="none" xmlns="http://www.w3.org/2000/svg">
<path d="M10.2258 54.59L6.19583 58.6132C6.0153 58.7899 5.78678 58.9098 5.53861 58.9581C5.29044 59.0064 5.03353 58.9809 4.79974 58.8848C4.56594 58.7887 4.36554 58.6262 4.22338 58.4174C4.08122 58.2087 4.00355 57.9629 4 57.7105V33.4426C4 32.0131 4.56884 30.6421 5.58138 29.6313C6.59392 28.6205 7.96722 28.0526 9.39917 28.0526C10.7078 28.0526 11.9628 28.5716 12.8881 29.4954C13.8135 30.4191 14.3333 31.672 14.3333 32.9784C14.3333 35.0919 15.1743 37.1189 16.6714 38.6133C18.1684 40.1078 20.1987 40.9474 22.3158 40.9474H45.3333C46.7036 40.9474 48.0178 41.4908 48.9867 42.4581C49.9557 43.4254 50.5 44.7373 50.5 46.1053V47.6784C50.5 48.3862 50.3603 49.0871 50.089 49.7411C49.8177 50.395 49.42 50.9892 48.9186 51.4897C48.4173 51.9902 47.8221 52.3873 47.167 52.6581C46.5119 52.929 45.8099 53.0684 45.1008 53.0684H13.8942C13.2124 53.0679 12.5373 53.2021 11.9077 53.4632C11.2781 53.7243 10.7065 54.1073 10.2258 54.59ZM66 40.9474V17.7368C66 15.6849 65.1835 13.717 63.7301 12.2661C62.2767 10.8151 60.3054 10 58.25 10H27.25C25.1946 10 23.2233 10.8151 21.7699 12.2661C20.3165 13.717 19.5 15.6849 19.5 17.7368V30.6316C19.5 31.9995 20.0443 33.3115 21.0133 34.2788C21.9822 35.2461 23.2964 35.7895 24.6667 35.7895H55.9767C56.6914 35.7915 57.3979 35.9415 58.0515 36.23C58.7052 36.5186 59.2917 36.9394 59.7742 37.4658L63.7525 41.7984C63.9269 41.99 64.1551 42.1248 64.4073 42.1852C64.6595 42.2455 64.924 42.2287 65.1665 42.1369C65.409 42.0451 65.6182 41.8825 65.7669 41.6703C65.9155 41.4582 65.9967 41.2063 66 40.9474Z" fill="#4643B6"/>
</svg>
