<svg width="44" height="44" viewBox="0 0 44 44" fill="none" xmlns="http://www.w3.org/2000/svg">
<path d="M41.2775 11.033C38.7665 11.033 36.4496 10.2011 34.589 8.79772C32.4552 7.18897 30.9221 4.82913 30.3807 2.10921C30.2466 1.43718 30.1744 0.743662 30.1675 0.032959H22.9943V19.6336L22.9858 30.3698C22.9858 33.2401 21.1166 35.6738 18.5256 36.5298C17.7736 36.7781 16.9615 36.8958 16.1159 36.8494C15.0365 36.7901 14.0251 36.4644 13.1459 35.9385C11.2751 34.8196 10.0066 32.7898 9.97224 30.4677C9.9181 26.8386 12.852 23.8798 16.4786 23.8798C17.1944 23.8798 17.8819 23.9966 18.5256 24.2089V18.8516V16.9257C17.8467 16.8251 17.1558 16.7727 16.4571 16.7727C12.4876 16.7727 8.77513 18.4227 6.12138 21.3953C4.1156 23.6417 2.91247 26.5077 2.72685 29.513C2.48364 33.4609 3.92825 37.2138 6.72982 39.9827C7.14146 40.3892 7.57372 40.7665 8.02575 41.1145C10.4277 42.963 13.3642 43.9651 16.4571 43.9651C17.1558 43.9651 17.8467 43.9135 18.5256 43.813C21.4148 43.385 24.0806 42.0624 26.1843 39.9827C28.7693 37.4278 30.1976 34.0358 30.2131 30.4256L30.1761 14.3931C31.4093 15.3444 32.7577 16.1316 34.2049 16.7426C36.4556 17.6923 38.8421 18.1735 41.2982 18.1726V12.964V11.0312C41.2999 11.033 41.2793 11.033 41.2775 11.033Z" fill="#5077FE"/>
</svg>
